<svg xmlns="http://www.w3.org/2000/svg" xml:space="preserve" viewBox="0 0 100 100">
  <path fill="#619E73" d="m81.5 42.8 4.7-13-29-10.3-2 5.5 3.2 16.2L86.1 51l-.7 1.9-26.5-9.4 1.4 7.1 23.1 8.2-.7 1.9-21.9-7.8 3.1 15.6L38 73.4l-.8 2.2 42.1 14.9 15.4-43.2-13.2-4.5zm-8.7-3.2-13.7-4.9.7-1.9 13.7 4.9-.7 1.9zM68 80.4l-2.6-8 3.1-1 1.3 4 7-4.4 1.7 2.8L68 80.4zM48.4 17.6l-9.6-6.5 1.6 8.1 8-1.6zm2.6 2.9-13.3 2.6-2.6-13.3-30.5 6 11.5 58.6 43.8-8.6L51 20.5zM13.1 26l14.3-2.8.4 2L13.5 28l-.4-2zm2 10.1-.4-2L45.9 28l.4 2-31.2 6.1zm1.2 6.1 31.2-6.1.4 2-31.2 6.1-.4-2zM45 62.5l-6.6-5.2 2-2.6 3.3 2.6 3.4-7.5 3 1.3L45 62.5zm40.7-21.7 8.1 2.9-5.2-11-2.9 8.1z"/>
</svg>
